<svg width="403" height="434" viewBox="0 0 403 434" fill="none" xmlns="http://www.w3.org/2000/svg">
<path d="M356.987 276.321C340.699 368.72 232.01 413.904 161.527 398.16C91.0434 382.416 18.6814 308.165 40.7211 209.287C62.7609 110.408 175.862 20.0412 246.345 35.785C314.909 44.419 370.108 173.053 356.987 276.321Z" fill="#012D98"/>
<g style="mix-blend-mode:multiply" opacity="0.8">
<path d="M395.898 198.87C391.826 294.892 342.83 387.31 213.106 399.067C103.16 409.032 10.8589 317.086 0 231.029C0 128.665 59.7241 72.9546 202.7 64.3489C308.122 58.0035 392.279 92.4308 395.898 198.87Z" fill="#C3D2F1"/>
</g>
<path d="M259.257 149.953C212.082 134.515 189.428 179.545 185.054 199.776C223.06 158.106 274.422 211.804 242.516 236.011C199.533 268.622 185.054 259.563 157.907 247.334C130.76 235.105 103.009 200.38 94.5631 181.659C92.7533 202.494 90.31 254.581 147.5 289.004C204.691 323.427 265.591 284.022 285.952 259.563C306.055 235.413 306.312 165.353 259.257 149.953Z" fill="#C3D2F1"/>
</svg>
